# xmcd CD database file
#
# Track frame offsets:
#	150
#	13055
#	24455
#	36190
#	54255
#	64002
#	77492
#	90530
#	102567
#	119952
#	139079
#	153854
#	163366
#	172959
#	184009
#	198329
#	209044
#	221274
#	232932
#	247257
#	258240
#	271650
#	290812
#	308944
#	327968
#
# Disc length: 4577 seconds
#
# Revision: 4
# Processed by: cddbd v1.5.2PL0 Copyright (c) Steve Scherf et al.
# Submitted via: CDex 1.70beta2
#
DISCID=6b11df19
DTITLE=Various Artist - Dette er Country Ballader - CD 1
DYEAR=2001
DGENRE=Country
TTITLE0=Patsy Cline - Jim Reeves - I fall to pieces - (1982
TTITLE1=Donna Fargo - The happiest girl in the whole USA - (1972)
TTITLE2=Connie Francis - Carolina moon - (1958)
TTITLE3=Tanya Tucker - I'm the singer, you're the song - (1978)
TTITLE4=Ned Miller - From a jack to a king - (1957)
TTITLE5=Loretta Lynn - Coal miner's daughter - (1974)
TTITLE6=Sir Douglas Quintet - Meet me in Stockholm - (1983)
TTITLE7=Marie Osmond - Paper roses - (1973)
TTITLE8=Olivia Newton John - Fight for our love - (1998)
TTITLE9=Claudia Scott - Heard you on my radio - (1992)
TTITLE10=Jeannie Pruett - Satin sheets - (1973)
TTITLE11=Burl Ives - A little bitty tear - (1962)
TTITLE12=Dave Dudley - Don't fence me in - (1968)
TTITLE13=Conway Twitty - Hello darlin' - (1970)
TTITLE14=George Jones - Walls can fall - (1992)
TTITLE15=Jerry Lee Lewis - I love you because - (1969)
TTITLE16=Carl Perkins - Ruby, don't take your love to town - (1988)
TTITLE17=Johnny Cash - I walk the line - (1988)
TTITLE18=Don Williams - Amanda - (1973)
TTITLE19=Roger Miller - King of the road - (1965)
TTITLE20=Dolly Parton - Behind close doors - (1996)
TTITLE21=Tom Pacheco - Robert and Ramona - (1994)
TTITLE22=Somebody's Darling - Pretty does it - (1994)
TTITLE23=Nanci Griffith - From a distance
TTITLE24=Reba McEntire - Whoever's in New England - (1986)
EXTD=YEAR: 2001
EXTT0=
EXTT1=
EXTT2=
EXTT3=
EXTT4=
EXTT5=
EXTT6=
EXTT7=
EXTT8=
EXTT9=
EXTT10=
EXTT11=
EXTT12=
EXTT13=
EXTT14=
EXTT15=
EXTT16=
EXTT17=
EXTT18=
EXTT19=
EXTT20=
EXTT21=
EXTT22=
EXTT23=
EXTT24=
PLAYORDER=
